# 3ds Max Wavefront OBJ Exporter v0.97b - (c)2007 guruware
# File Created: 07.09.2019 15:12:28

mtllib backWall.mtl

#
# object actual_backwall
#

v  -349.8500 -88.4861 600.0001
v  -349.8500 -88.4861 -599.9999
v  -349.8500 179.5139 -599.9999
v  -349.8500 179.5139 600.0001
# 4 vertices

vn 1.0000 0.0000 -0.0000
# 1 vertex normals

vt 0.0000 0.0000 0.0000
vt 1.0000 0.0000 0.0000
vt 1.0000 1.0000 0.0000
vt 0.0000 1.0000 0.0000
# 4 texture coords

g actual_backwall
usemtl 20___Default
s 16
f 1/1/1 2/2/1 3/3/1 4/4/1 
# 1 polygons

