# 3ds Max Wavefront OBJ Exporter v0.97b - (c)2007 guruware
# File Created: 09.09.2019 21:44:45

mtllib benchLeft.mtl

#
# object benchLeft
#

v  -350.0000 -22.4861 -530.9999
v  -350.0000 -22.4861 -599.9999
v  350.0000 -22.4861 -599.9999
v  350.0000 -22.4861 -530.9999
v  -350.0000 -14.4861 -530.9999
v  350.0000 -14.4861 -530.9999
v  350.0000 -14.4861 -599.9999
v  -350.0000 -14.4861 -599.9999
v  -350.0000 -16.4861 -530.9999
v  350.0000 -16.4861 -530.9999
v  -350.0000 -16.4861 -599.9999
v  350.0000 -16.4861 -599.9999
# 12 vertices

vn 0.0000 -1.0000 -0.0000
vn 0.0000 1.0000 -0.0000
vn 0.0000 0.0000 1.0000
vn -1.0000 0.0000 -0.0000
vn 0.0000 0.0000 -1.0000
vn 1.0000 0.0000 -0.0000
# 6 vertex normals

vt 1.0000 0.0000 0.0000
vt 1.0000 1.0000 0.0000
vt 0.0000 1.0000 0.0000
vt 0.0000 0.0000 0.0000
# 4 texture coords

g benchLeft
usemtl 19___Default
s 2
f 1/1/1 2/2/1 3/3/1 4/4/1 
s 4
f 5/4/2 6/1/2 7/2/2 8/3/2 
s 8
f 9/4/3 10/1/3 6/2/3 5/3/3 
s off
f 9/1/4 11/2/4 2/2/4 1/1/4 
f 11/2/5 12/3/5 3/3/5 2/2/5 
f 12/3/6 10/4/6 4/4/6 3/3/6 
f 10/4/3 9/1/3 1/1/3 4/4/3 
# 7 polygons

