# 3ds Max Wavefront OBJ Exporter v0.97b - (c)2007 guruware
# File Created: 09.09.2019 21:45:06

mtllib benchCenter.mtl

#
# object benchCenter
#

v  281.0000 -22.4861 600.0001
v  281.0000 -22.4861 -599.9999
v  350.0000 -22.4861 -599.9999
v  350.0000 -22.4861 600.0001
v  281.0000 -14.4861 600.0001
v  350.0000 -14.4861 600.0001
v  350.0000 -14.4861 -599.9999
v  281.0000 -14.4861 -599.9999
v  281.0000 -16.4861 -599.9999
v  281.0000 -16.4861 600.0001
v  350.0000 -16.4861 -599.9999
v  350.0000 -16.4861 600.0001
# 12 vertices

vn 0.0000 -1.0000 -0.0000
vn 0.0000 1.0000 -0.0000
vn -1.0000 0.0000 -0.0000
vn 0.0000 0.0000 -1.0000
vn 1.0000 0.0000 -0.0000
vn 0.0000 0.0000 1.0000
# 6 vertex normals

vt 1.0000 0.0000 0.0000
vt 1.0000 1.0000 0.0000
vt 0.0000 1.0000 0.0000
vt 0.0000 0.0000 0.0000
# 4 texture coords

g benchCenter
usemtl 19___Default
s 2
f 1/1/1 2/2/1 3/3/1 4/4/1 
s 4
f 5/4/2 6/1/2 7/2/2 8/3/2 
s 64
f 9/4/3 10/1/3 5/2/3 8/3/3 
s off
f 10/1/3 9/2/3 2/2/3 1/1/3 
f 9/2/4 11/3/4 3/3/4 2/2/4 
f 11/3/5 12/4/5 4/4/5 3/3/5 
f 12/4/6 10/1/6 1/1/6 4/4/6 
# 7 polygons

