# 3ds Max Wavefront OBJ Exporter v0.97b - (c)2007 guruware
# File Created: 08.09.2019 21:18:09

mtllib cupboard.mtl

#
# object Box001
#

v  -9.2435 0.0000 8.4562
v  -9.2435 0.0000 -11.5438
v  10.7565 0.0000 -11.5438
v  10.7565 0.0000 8.4562
v  -9.2435 20.0000 8.4562
v  10.7565 20.0000 8.4562
v  10.7565 20.0000 -11.5438
v  -9.2435 20.0000 -11.5438
# 8 vertices

vn 0.0000 -1.0000 -0.0000
vn 0.0000 1.0000 -0.0000
vn 1.0000 0.0000 -0.0000
vn 0.0000 0.0000 -1.0000
vn -1.0000 0.0000 -0.0000
# 5 vertex normals

vt 1.0000 0.0000 0.0000
vt 1.0000 1.0000 0.0000
vt 0.0000 1.0000 0.0000
vt 0.0000 0.0000 0.0000
# 4 texture coords

g Box001
usemtl 01___Default
s 2
f 1/1/1 2/2/1 3/3/1 4/4/1 
s 4
f 5/4/2 6/1/2 7/2/2 8/3/2 
s 16
f 4/4/3 3/1/3 7/2/3 6/3/3 
s 32
f 3/4/4 2/1/4 8/2/4 7/3/4 
s 64
f 2/4/5 1/1/5 5/2/5 8/3/5 
# 5 polygons

#
# object Object001
#

v  -9.2435 0.0000 8.4562
v  10.7565 0.0000 8.4562
v  10.7565 20.0000 8.4562
v  -9.2435 20.0000 8.4562
# 4 vertices

vn 0.0000 0.0000 1.0000
# 1 vertex normals

vt 0.0000 0.0000 0.0000
vt 1.0000 0.0000 0.0000
vt 1.0000 1.0000 0.0000
vt 0.0000 1.0000 0.0000
# 4 texture coords

g Object001
usemtl 02___Default
s 8
f 9/5/6 10/6/6 11/7/6 12/8/6 
# 1 polygons

