# 3ds Max Wavefront OBJ Exporter v0.97b - (c)2007 guruware
# File Created: 05.09.2019 16:16:00

mtllib floor.mtl

#
# object floor
#

v  -350.0000 -88.4861 600.0001
v  -350.0000 -88.4861 -599.9999
v  350.0000 -88.4861 -599.9999
v  350.0000 -88.4861 600.0001
v  -350.0000 -88.1861 600.0001
v  350.0000 -88.1861 600.0001
v  350.0000 -88.1861 -599.9999
v  -350.0000 -88.1861 -599.9999
# 8 vertices

vn 0.0000 -1.0000 -0.0000
vn 0.0000 1.0000 -0.0000
# 2 vertex normals

vt 1.0000 0.0000 0.0000
vt 1.0000 1.0000 0.0000
vt 0.0000 1.0000 0.0000
vt 0.0000 0.0000 0.0000
# 4 texture coords

g floor
usemtl 21___Default
s 2
f 1/1/1 2/2/1 3/3/1 4/4/1 
s 4
f 5/4/2 6/1/2 7/2/2 8/3/2 
# 2 polygons

