# 3ds Max Wavefront OBJ Exporter v0.97b - (c)2007 guruware
# File Created: 08.09.2019 18:32:34

mtllib keyboard.mtl

#
# object Object001
#

v  -18.4740 4.0000 8.8814
v  21.5260 4.0000 8.8814
v  21.5260 4.0000 -6.1186
v  -18.4740 4.0000 -6.1186
v  -18.4740 0.0000 8.8814
v  -18.4740 0.0000 -6.1186
v  21.5260 0.0000 -6.1186
v  21.5260 0.0000 8.8814
# 8 vertices

vn 0.0000 1.0000 -0.0000
vn 0.0000 -1.0000 -0.0000
vn 0.0000 0.0000 1.0000
vn 1.0000 0.0000 -0.0000
vn 0.0000 0.0000 -1.0000
vn -1.0000 0.0000 -0.0000
# 6 vertex normals

vt 0.0000 0.0000 0.0000
vt 1.0000 0.0000 0.0000
vt 1.0000 1.0000 0.0000
vt 0.0000 1.0000 0.0000
# 4 texture coords

g Object001
usemtl 08___Default
s 4
f 1/1/1 2/2/1 3/3/1 4/4/1 
usemtl 02___Default
s 2
f 5/2/2 6/3/2 7/4/2 8/1/2 
s 8
f 5/1/3 8/2/3 2/3/3 1/4/3 
s 16
f 8/1/4 7/2/4 3/3/4 2/4/4 
s 32
f 7/1/5 6/2/5 4/3/5 3/4/5 
s 64
f 6/1/6 5/2/6 1/3/6 4/4/6 
# 6 polygons

