# 3ds Max Wavefront OBJ Exporter v0.97b - (c)2007 guruware
# File Created: 08.09.2019 21:25:06

mtllib lecturn.mtl

#
# object Object001
#

v  -9.2435 0.0000 8.4562
v  10.7565 0.0000 8.4562
v  10.7565 20.0000 8.4562
v  -9.2435 20.0000 8.4562
v  -9.2435 0.0000 -11.5438
v  10.7565 0.0000 -11.5438
v  10.7565 20.0000 -11.5438
v  -9.2435 20.0000 -11.5438
# 8 vertices

vn 0.0000 0.0000 1.0000
vn 0.0000 -1.0000 -0.0000
vn 0.0000 1.0000 -0.0000
vn 1.0000 0.0000 -0.0000
vn 0.0000 0.0000 -1.0000
vn -1.0000 0.0000 -0.0000
# 6 vertex normals

vt 0.0000 0.0000 0.0000
vt 1.0000 0.0000 0.0000
vt 1.0000 1.0000 0.0000
vt 0.0000 1.0000 0.0000
# 4 texture coords

g Object001
usemtl 01___Default
s 8
f 1/1/1 2/2/1 3/3/1 4/4/1 
s 2
f 1/2/2 5/3/2 6/4/2 2/1/2 
s 4
f 4/1/3 3/2/3 7/3/3 8/4/3 
s 16
f 2/1/4 6/2/4 7/3/4 3/4/4 
s 32
f 6/1/5 5/2/5 8/3/5 7/4/5 
s 64
f 5/1/6 1/2/6 4/3/6 8/4/6 
# 6 polygons

#
# object Box001
#

v  -14.1903 16.6889 12.8958
v  -14.1903 16.6889 -17.1042
v  15.8097 16.6889 -17.1042
v  15.8097 16.6889 12.8958
v  -14.1903 20.6889 12.8958
v  15.8097 20.6889 12.8958
v  15.8097 20.6889 -17.1042
v  -14.1903 20.6889 -17.1042
# 8 vertices

vn 0.0000 -1.0000 -0.0000
vn 0.0000 1.0000 -0.0000
vn 0.0000 0.0000 1.0000
vn 1.0000 0.0000 -0.0000
vn 0.0000 0.0000 -1.0000
vn -1.0000 0.0000 -0.0000
# 6 vertex normals

vt 1.0000 0.0000 0.0000
vt 1.0000 1.0000 0.0000
vt 0.0000 1.0000 0.0000
vt 0.0000 0.0000 0.0000
# 4 texture coords

g Box001
usemtl 01___Default
s 2
f 9/5/7 10/6/7 11/7/7 12/8/7 
s 4
f 13/8/8 14/5/8 15/6/8 16/7/8 
s 8
f 9/8/9 12/5/9 14/6/9 13/7/9 
s 16
f 12/8/10 11/5/10 15/6/10 14/7/10 
s 32
f 11/8/11 10/5/11 16/6/11 15/7/11 
s 64
f 10/8/12 9/5/12 13/6/12 16/7/12 
# 6 polygons

