# 3ds Max Wavefront OBJ Exporter v0.97b - (c)2007 guruware
# File Created: 05.09.2019 16:16:22

mtllib leftWall.mtl

#
# object leftWall
#

v  -350.0000 -88.4861 -599.8499
v  350.0000 -88.4861 -599.8499
v  350.0000 179.5139 -599.8499
v  -350.0000 179.5139 -599.8499
v  350.0000 -88.4861 -600.1500
v  -350.0000 -88.4861 -600.1500
v  -350.0000 179.5139 -600.1500
v  350.0000 179.5139 -600.1500
# 8 vertices

vn 0.0000 0.0000 1.0000
vn 0.0000 0.0000 -1.0000
# 2 vertex normals

vt 0.0000 0.0000 0.0000
vt 1.0000 0.0000 0.0000
vt 1.0000 1.0000 0.0000
vt 0.0000 1.0000 0.0000
# 4 texture coords

g leftWall
usemtl 20___Default
s 8
f 1/1/1 2/2/1 3/3/1 4/4/1 
s 32
f 5/1/2 6/2/2 7/3/2 8/4/2 
# 2 polygons

