# 3ds Max Wavefront OBJ Exporter v0.97b - (c)2007 guruware
# File Created: 09.09.2019 15:59:41

mtllib projector.mtl

#
# object Box001
#

v  -6.6932 0.0000 4.3068
v  -6.6932 0.0000 -5.6932
v  5.3068 0.0000 -5.6932
v  5.3068 0.0000 4.3068
# 4 vertices

vn 0.0000 -1.0000 -0.0000
# 1 vertex normals

vt 1.0000 0.0000 0.0000
vt 1.0000 1.0000 0.0000
vt 0.0000 1.0000 0.0000
vt 0.0000 0.0000 0.0000
# 4 texture coords

g Box001
usemtl 01___Default
s 2
f 1/1/1 2/2/1 3/3/1 4/4/1 
# 1 polygons

#
# object front
#

v  -6.6932 0.0000 4.3068
v  5.3068 0.0000 4.3068
v  5.3068 4.0000 4.3068
v  -6.6932 4.0000 4.3068
# 4 vertices

vn 0.0000 0.0000 1.0000
# 1 vertex normals

vt 0.0000 0.0000 0.0000
vt 1.0000 0.0000 0.0000
vt 1.0000 1.0000 0.0000
vt 0.0000 1.0000 0.0000
# 4 texture coords

g front
usemtl 08___Default
s 8
f 5/5/2 6/6/2 7/7/2 8/8/2 
# 1 polygons

#
# object sides
#

v  5.3068 0.0000 4.3068
v  5.3068 0.0000 -5.6932
v  5.3068 4.0000 -5.6932
v  5.3068 4.0000 4.3068
# 4 vertices

vn 1.0000 0.0000 -0.0000
# 1 vertex normals

vt 0.0000 0.0000 0.0000
vt 1.0000 0.0000 0.0000
vt 1.0000 1.0000 0.0000
vt 0.0000 1.0000 0.0000
# 4 texture coords

g sides
usemtl 14___Default
s 16
f 9/9/3 10/10/3 11/11/3 12/12/3 
# 1 polygons

#
# object top
#

v  -6.6932 4.0000 4.3068
v  5.3068 4.0000 4.3068
v  5.3068 4.0000 -5.6932
v  -6.6932 4.0000 -5.6932
# 4 vertices

vn 0.0000 1.0000 -0.0000
# 1 vertex normals

vt 0.0000 0.0000 0.0000
vt 1.0000 0.0000 0.0000
vt 1.0000 1.0000 0.0000
vt 0.0000 1.0000 0.0000
# 4 texture coords

g top
usemtl 02___Default
s 4
f 13/13/4 14/14/4 15/15/4 16/16/4 
# 1 polygons

#
# object back
#

v  5.3068 0.0000 -5.6932
v  -6.6932 0.0000 -5.6932
v  -6.6932 4.0000 -5.6932
v  5.3068 4.0000 -5.6932
# 4 vertices

vn 0.0000 0.0000 -1.0000
# 1 vertex normals

vt 0.0000 0.0000 0.0000
vt 1.0000 0.0000 0.0000
vt 1.0000 1.0000 0.0000
vt 0.0000 1.0000 0.0000
# 4 texture coords

g back
usemtl 09___Default
s 32
f 17/17/5 18/18/5 19/19/5 20/20/5 
# 1 polygons

#
# object left
#

v  -6.6932 0.0000 -5.6932
v  -6.6932 0.0000 4.3068
v  -6.6932 4.0000 4.3068
v  -6.6932 4.0000 -5.6932
# 4 vertices

vn -1.0000 0.0000 -0.0000
# 1 vertex normals

vt 0.0000 0.0000 0.0000
vt 1.0000 0.0000 0.0000
vt 1.0000 1.0000 0.0000
vt 0.0000 1.0000 0.0000
# 4 texture coords

g left
usemtl 15___Default
s 64
f 21/21/6 22/22/6 23/23/6 24/24/6 
# 1 polygons

#
# object Cylinder001
#

v  -0.5792 -3.7122 -0.8504
v  0.1868 -3.7122 -1.4932
v  0.3604 -3.7122 -1.1925
v  0.4208 -3.7122 -0.8504
v  -0.4056 -3.7122 -1.8352
v  -0.0792 -3.7122 -1.7165
v  -1.0792 -3.7122 -1.7165
v  -0.7529 -3.7122 -1.8352
v  -1.5189 -3.7122 -1.1925
v  -1.3453 -3.7122 -1.4932
v  -1.5189 -3.7122 -0.5084
v  -1.5792 -3.7122 -0.8504
v  -1.0792 -3.7122 0.0156
v  -1.3453 -3.7122 -0.2076
v  -0.4056 -3.7122 0.1344
v  -0.7529 -3.7122 0.1344
v  0.1868 -3.7122 -0.2076
v  -0.0792 -3.7122 0.0156
v  0.3604 -3.7122 -0.5084
v  0.3604 -2.9122 -1.1925
v  0.4208 -2.9122 -0.8504
v  0.1868 -2.9122 -1.4932
v  -0.0792 -2.9122 -1.7165
v  -0.4056 -2.9122 -1.8352
v  -0.7529 -2.9122 -1.8352
v  -1.0792 -2.9122 -1.7165
v  -1.3453 -2.9122 -1.4932
v  -1.5189 -2.9122 -1.1925
v  -1.5792 -2.9122 -0.8504
v  -1.5189 -2.9122 -0.5084
v  -1.3453 -2.9122 -0.2076
v  -1.0792 -2.9122 0.0156
v  -0.7529 -2.9122 0.1344
v  -0.4056 -2.9122 0.1344
v  -0.0792 -2.9122 0.0156
v  0.1868 -2.9122 -0.2076
v  0.3604 -2.9122 -0.5084
v  0.3604 -2.1122 -1.1925
v  0.4208 -2.1122 -0.8504
v  0.1868 -2.1122 -1.4932
v  -0.0792 -2.1122 -1.7165
v  -0.4056 -2.1122 -1.8352
v  -0.7529 -2.1122 -1.8352
v  -1.0792 -2.1122 -1.7165
v  -1.3453 -2.1122 -1.4932
v  -1.5189 -2.1122 -1.1925
v  -1.5792 -2.1122 -0.8504
v  -1.5189 -2.1122 -0.5084
v  -1.3453 -2.1122 -0.2076
v  -1.0792 -2.1122 0.0156
v  -0.7529 -2.1122 0.1344
v  -0.4056 -2.1122 0.1344
v  -0.0792 -2.1122 0.0156
v  0.1868 -2.1122 -0.2076
v  0.3604 -2.1122 -0.5084
v  0.3604 -1.3122 -1.1925
v  0.4208 -1.3122 -0.8504
v  0.1868 -1.3122 -1.4932
v  -0.0792 -1.3122 -1.7165
v  -0.4056 -1.3122 -1.8352
v  -0.7529 -1.3122 -1.8352
v  -1.0792 -1.3122 -1.7165
v  -1.3453 -1.3122 -1.4932
v  -1.5189 -1.3122 -1.1925
v  -1.5792 -1.3122 -0.8504
v  -1.5189 -1.3122 -0.5084
v  -1.3453 -1.3122 -0.2076
v  -1.0792 -1.3122 0.0156
v  -0.7529 -1.3122 0.1344
v  -0.4056 -1.3122 0.1344
v  -0.0792 -1.3122 0.0156
v  0.1868 -1.3122 -0.2076
v  0.3604 -1.3122 -0.5084
v  0.3604 -0.5122 -1.1925
v  0.4208 -0.5122 -0.8504
v  0.1868 -0.5122 -1.4932
v  -0.0792 -0.5122 -1.7165
v  -0.4056 -0.5122 -1.8352
v  -0.7529 -0.5122 -1.8352
v  -1.0792 -0.5122 -1.7165
v  -1.3453 -0.5122 -1.4932
v  -1.5189 -0.5122 -1.1925
v  -1.5792 -0.5122 -0.8504
v  -1.5189 -0.5122 -0.5084
v  -1.3453 -0.5122 -0.2076
v  -1.0792 -0.5122 0.0156
v  -0.7529 -0.5122 0.1344
v  -0.4056 -0.5122 0.1344
v  -0.0792 -0.5122 0.0156
v  0.1868 -0.5122 -0.2076
v  0.3604 -0.5122 -0.5084
v  0.3604 0.2878 -1.1925
v  0.4208 0.2878 -0.8504
v  0.1868 0.2878 -1.4932
v  -0.0792 0.2878 -1.7165
v  -0.4056 0.2878 -1.8352
v  -0.7529 0.2878 -1.8352
v  -1.0792 0.2878 -1.7165
v  -1.3453 0.2878 -1.4932
v  -1.5189 0.2878 -1.1925
v  -1.5792 0.2878 -0.8504
v  -1.5189 0.2878 -0.5084
v  -1.3453 0.2878 -0.2076
v  -1.0792 0.2878 0.0156
v  -0.7529 0.2878 0.1344
v  -0.4056 0.2878 0.1344
v  -0.0792 0.2878 0.0156
v  0.1868 0.2878 -0.2076
v  0.3604 0.2878 -0.5084
v  -0.5792 0.2878 -0.8504
# 110 vertices

vn 0.0000 -1.0000 -0.0000
vn 1.0000 0.0000 0.0000
vn 0.9397 0.0000 -0.3420
vn 0.7660 0.0000 -0.6428
vn 0.5000 0.0000 -0.8660
vn 0.1736 0.0000 -0.9848
vn -0.1736 0.0000 -0.9848
vn -0.5000 0.0000 -0.8660
vn -0.7660 0.0000 -0.6428
vn -0.9397 0.0000 -0.3420
vn -1.0000 0.0000 -0.0000
vn -0.9397 0.0000 0.3420
vn -0.7660 0.0000 0.6428
vn -0.5000 0.0000 0.8660
vn -0.1736 0.0000 0.9848
vn 0.1736 0.0000 0.9848
vn 0.5000 0.0000 0.8660
vn 0.7660 0.0000 0.6428
vn 0.9397 0.0000 0.3420
vn 0.0000 1.0000 -0.0000
# 20 vertex normals

vt 0.5000 0.0000 0.0000
vt 0.8611 0.0000 1.0000
vt 0.8056 0.0000 1.0000
vt 0.7500 0.0000 1.0000
vt 0.9722 0.0000 1.0000
vt 0.9167 0.0000 1.0000
vt 0.0833 0.0000 1.0000
vt 0.0278 0.0000 1.0000
vt -0.0278 0.0000 1.0000
vt 0.1944 0.0000 1.0000
vt 0.1389 0.0000 1.0000
vt 0.3056 0.0000 1.0000
vt 0.2500 0.0000 1.0000
vt 0.4167 0.0000 1.0000
vt 0.3611 0.0000 1.0000
vt 0.5278 0.0000 1.0000
vt 0.4722 0.0000 1.0000
vt 0.6389 0.0000 1.0000
vt 0.5833 0.0000 1.0000
vt 0.6944 0.0000 1.0000
vt 0.8056 0.2000 1.0000
vt 0.7500 0.2000 1.0000
vt 0.8611 0.2000 1.0000
vt 0.9167 0.2000 1.0000
vt 0.9722 0.2000 1.0000
vt 0.0278 0.2000 1.0000
vt -0.0278 0.2000 1.0000
vt 0.0833 0.2000 1.0000
vt 0.1389 0.2000 1.0000
vt 0.1944 0.2000 1.0000
vt 0.2500 0.2000 1.0000
vt 0.3056 0.2000 1.0000
vt 0.3611 0.2000 1.0000
vt 0.4167 0.2000 1.0000
vt 0.4722 0.2000 1.0000
vt 0.5278 0.2000 1.0000
vt 0.5833 0.2000 1.0000
vt 0.6389 0.2000 1.0000
vt 0.6944 0.2000 1.0000
vt 0.8056 0.4000 1.0000
vt 0.7500 0.4000 1.0000
vt 0.8611 0.4000 1.0000
vt 0.9167 0.4000 1.0000
vt 0.9722 0.4000 1.0000
vt 0.0278 0.4000 1.0000
vt -0.0278 0.4000 1.0000
vt 0.0833 0.4000 1.0000
vt 0.1389 0.4000 1.0000
vt 0.1944 0.4000 1.0000
vt 0.2500 0.4000 1.0000
vt 0.3056 0.4000 1.0000
vt 0.3611 0.4000 1.0000
vt 0.4167 0.4000 1.0000
vt 0.4722 0.4000 1.0000
vt 0.5278 0.4000 1.0000
vt 0.5833 0.4000 1.0000
vt 0.6389 0.4000 1.0000
vt 0.6944 0.4000 1.0000
vt 0.8056 0.6000 1.0000
vt 0.7500 0.6000 1.0000
vt 0.8611 0.6000 1.0000
vt 0.9167 0.6000 1.0000
vt 0.9722 0.6000 1.0000
vt 0.0278 0.6000 1.0000
vt -0.0278 0.6000 1.0000
vt 0.0833 0.6000 1.0000
vt 0.1389 0.6000 1.0000
vt 0.1944 0.6000 1.0000
vt 0.2500 0.6000 1.0000
vt 0.3056 0.6000 1.0000
vt 0.3611 0.6000 1.0000
vt 0.4167 0.6000 1.0000
vt 0.4722 0.6000 1.0000
vt 0.5278 0.6000 1.0000
vt 0.5833 0.6000 1.0000
vt 0.6389 0.6000 1.0000
vt 0.6944 0.6000 1.0000
vt 0.8056 0.8000 1.0000
vt 0.7500 0.8000 1.0000
vt 0.8611 0.8000 1.0000
vt 0.9167 0.8000 1.0000
vt 0.9722 0.8000 1.0000
vt 0.0278 0.8000 1.0000
vt -0.0278 0.8000 1.0000
vt 0.0833 0.8000 1.0000
vt 0.1389 0.8000 1.0000
vt 0.1944 0.8000 1.0000
vt 0.2500 0.8000 1.0000
vt 0.3056 0.8000 1.0000
vt 0.3611 0.8000 1.0000
vt 0.4167 0.8000 1.0000
vt 0.4722 0.8000 1.0000
vt 0.5278 0.8000 1.0000
vt 0.5833 0.8000 1.0000
vt 0.6389 0.8000 1.0000
vt 0.6944 0.8000 1.0000
vt 0.8056 1.0000 1.0000
vt 0.7500 1.0000 1.0000
vt 0.8611 1.0000 1.0000
vt 0.9167 1.0000 1.0000
vt 0.9722 1.0000 1.0000
vt 0.0278 1.0000 1.0000
vt -0.0278 1.0000 1.0000
vt 0.0833 1.0000 1.0000
vt 0.1389 1.0000 1.0000
vt 0.1944 1.0000 1.0000
vt 0.2500 1.0000 1.0000
vt 0.3056 1.0000 1.0000
vt 0.3611 1.0000 1.0000
vt 0.4167 1.0000 1.0000
vt 0.4722 1.0000 1.0000
vt 0.5278 1.0000 1.0000
vt 0.5833 1.0000 1.0000
vt 0.6389 1.0000 1.0000
vt 0.6944 1.0000 1.0000
vt 0.5000 1.0000 0.0000
vt -0.0197 1.0000 0.8794
# 117 texture coords

g Cylinder001
usemtl 01___Default
s 1
f 25/25/7 26/26/7 27/27/7 28/28/7 
f 25/25/7 29/29/7 30/30/7 26/26/7 
f 25/25/7 31/31/7 32/32/7 29/33/7 
f 25/25/7 33/34/7 34/35/7 31/31/7 
f 25/25/7 35/36/7 36/37/7 33/34/7 
f 25/25/7 37/38/7 38/39/7 35/36/7 
f 25/25/7 39/40/7 40/41/7 37/38/7 
f 25/25/7 41/42/7 42/43/7 39/40/7 
f 25/25/7 28/28/7 43/44/7 41/42/7 
s 8
f 28/28/8 27/27/9 44/45/9 45/46/8 
f 27/27/9 26/26/10 46/47/10 44/45/9 
f 26/26/10 30/30/11 47/48/11 46/47/10 
f 30/30/11 29/29/12 48/49/12 47/48/11 
f 29/33/12 32/32/13 49/50/13 48/51/12 
f 32/32/13 31/31/14 50/52/14 49/50/13 
f 31/31/14 34/35/15 51/53/15 50/52/14 
f 34/35/15 33/34/16 52/54/16 51/53/15 
f 33/34/16 36/37/17 53/55/17 52/54/16 
f 36/37/17 35/36/18 54/56/18 53/55/17 
f 35/36/18 38/39/19 55/57/19 54/56/18 
f 38/39/19 37/38/20 56/58/20 55/57/19 
f 37/38/20 40/41/21 57/59/21 56/58/20 
f 40/41/21 39/40/22 58/60/22 57/59/21 
f 39/40/22 42/43/23 59/61/23 58/60/22 
f 42/43/23 41/42/24 60/62/24 59/61/23 
f 41/42/24 43/44/25 61/63/25 60/62/24 
f 43/44/25 28/28/8 45/46/8 61/63/25 
f 45/46/8 44/45/9 62/64/9 63/65/8 
f 44/45/9 46/47/10 64/66/10 62/64/9 
f 46/47/10 47/48/11 65/67/11 64/66/10 
f 47/48/11 48/49/12 66/68/12 65/67/11 
f 48/51/12 49/50/13 67/69/13 66/70/12 
f 49/50/13 50/52/14 68/71/14 67/69/13 
f 50/52/14 51/53/15 69/72/15 68/71/14 
f 51/53/15 52/54/16 70/73/16 69/72/15 
f 52/54/16 53/55/17 71/74/17 70/73/16 
f 53/55/17 54/56/18 72/75/18 71/74/17 
f 54/56/18 55/57/19 73/76/19 72/75/18 
f 55/57/19 56/58/20 74/77/20 73/76/19 
f 56/58/20 57/59/21 75/78/21 74/77/20 
f 57/59/21 58/60/22 76/79/22 75/78/21 
f 58/60/22 59/61/23 77/80/23 76/79/22 
f 59/61/23 60/62/24 78/81/24 77/80/23 
f 60/62/24 61/63/25 79/82/25 78/81/24 
f 61/63/25 45/46/8 63/65/8 79/82/25 
f 63/65/8 62/64/9 80/83/9 81/84/8 
f 62/64/9 64/66/10 82/85/10 80/83/9 
f 64/66/10 65/67/11 83/86/11 82/85/10 
f 65/67/11 66/68/12 84/87/12 83/86/11 
f 66/70/12 67/69/13 85/88/13 84/89/12 
f 67/69/13 68/71/14 86/90/14 85/88/13 
f 68/71/14 69/72/15 87/91/15 86/90/14 
f 69/72/15 70/73/16 88/92/16 87/91/15 
f 70/73/16 71/74/17 89/93/17 88/92/16 
f 71/74/17 72/75/18 90/94/18 89/93/17 
f 72/75/18 73/76/19 91/95/19 90/94/18 
f 73/76/19 74/77/20 92/96/20 91/95/19 
f 74/77/20 75/78/21 93/97/21 92/96/20 
f 75/78/21 76/79/22 94/98/22 93/97/21 
f 76/79/22 77/80/23 95/99/23 94/98/22 
f 77/80/23 78/81/24 96/100/24 95/99/23 
f 78/81/24 79/82/25 97/101/25 96/100/24 
f 79/82/25 63/65/8 81/84/8 97/101/25 
f 81/84/8 80/83/9 98/102/9 99/103/8 
f 80/83/9 82/85/10 100/104/10 98/102/9 
f 82/85/10 83/86/11 101/105/11 100/104/10 
f 83/86/11 84/87/12 102/106/12 101/105/11 
f 84/89/12 85/88/13 103/107/13 102/108/12 
f 85/88/13 86/90/14 104/109/14 103/107/13 
f 86/90/14 87/91/15 105/110/15 104/109/14 
f 87/91/15 88/92/16 106/111/16 105/110/15 
f 88/92/16 89/93/17 107/112/17 106/111/16 
f 89/93/17 90/94/18 108/113/18 107/112/17 
f 90/94/18 91/95/19 109/114/19 108/113/18 
f 91/95/19 92/96/20 110/115/20 109/114/19 
f 92/96/20 93/97/21 111/116/21 110/115/20 
f 93/97/21 94/98/22 112/117/22 111/116/21 
f 94/98/22 95/99/23 113/118/23 112/117/22 
f 95/99/23 96/100/24 114/119/24 113/118/23 
f 96/100/24 97/101/25 115/120/25 114/119/24 
f 97/101/25 81/84/8 99/103/8 115/120/25 
f 99/103/8 98/102/9 116/121/9 117/122/8 
f 98/102/9 100/104/10 118/123/10 116/121/9 
f 100/104/10 101/105/11 119/124/11 118/123/10 
f 101/105/11 102/106/12 120/125/12 119/124/11 
f 102/108/12 103/107/13 121/126/13 120/127/12 
f 103/107/13 104/109/14 122/128/14 121/126/13 
f 104/109/14 105/110/15 123/129/15 122/128/14 
f 105/110/15 106/111/16 124/130/16 123/129/15 
f 106/111/16 107/112/17 125/131/17 124/130/16 
f 107/112/17 108/113/18 126/132/18 125/131/17 
f 108/113/18 109/114/19 127/133/19 126/132/18 
f 109/114/19 110/115/20 128/134/20 127/133/19 
f 110/115/20 111/116/21 129/135/21 128/134/20 
f 111/116/21 112/117/22 130/136/22 129/135/21 
f 112/117/22 113/118/23 131/137/23 130/136/22 
f 113/118/23 114/119/24 132/138/24 131/137/23 
f 114/119/24 115/120/25 133/139/25 132/138/24 
f 115/120/25 99/103/8 117/122/8 133/139/25 
s 1
f 134/140/26 133/139/26 117/122/26 116/121/26 
f 134/140/26 116/121/26 118/123/26 119/124/26 
f 134/140/26 119/141/26 120/127/26 121/126/26 
f 134/140/26 121/126/26 122/128/26 123/129/26 
f 134/140/26 123/129/26 124/130/26 125/131/26 
f 134/140/26 125/131/26 126/132/26 127/133/26 
f 134/140/26 127/133/26 128/134/26 129/135/26 
f 134/140/26 129/135/26 130/136/26 131/137/26 
f 134/140/26 131/137/26 132/138/26 133/139/26 
# 108 polygons

