# 3ds Max Wavefront OBJ Exporter v0.97b - (c)2007 guruware
# File Created: 08.09.2019 17:06:03

mtllib whiteKeyboard.mtl

#
# object Box13
#

v  -27.0688 5.3059 -23.9209
v  -33.6505 5.3059 6.8792
v  -23.5468 5.7424 9.0719
v  -16.9651 5.7424 -21.7282
v  -27.0688 3.4936 -23.9209
v  -18.4803 3.8353 -22.0857
v  -25.0620 3.8353 8.7145
v  -33.6505 3.4936 6.8792
v  -16.8741 3.8353 -21.7424
v  -23.4558 3.8353 9.0577
v  -18.4709 1.9761 -22.0837
v  -16.8379 1.6784 -21.7347
v  -23.4196 1.6783 9.0655
v  -25.0526 1.9761 8.7165
# 14 vertices

vn -0.0412 0.9991 -0.0088
vn 0.0380 -0.9992 0.0081
vn 0.2092 0.0020 -0.9779
vn 0.2113 0.0174 -0.9773
vn 0.2111 0.0158 -0.9773
vn 0.2090 0.0000 -0.9779
vn 0.9769 0.0451 0.2088
vn -0.2090 -0.0156 0.9778
vn -0.2121 -0.0000 0.9773
vn -0.2117 -0.0020 0.9773
vn -0.2085 -0.0177 0.9779
vn -0.2089 -0.0172 0.9778
vn -0.9779 -0.0000 -0.2090
vn -0.1717 -0.9845 -0.0367
vn 0.9778 0.0171 0.2089
vn -0.2090 -0.0000 0.9779
vn -0.9779 -0.0052 -0.2090
# 17 vertex normals

vt 0.0006 0.3055 0.0000
vt 1.0006 0.3078 0.0000
vt 1.0000 1.0023 0.0000
vt 0.0000 1.0000 0.0000
vt 0.0267 0.1091 0.0000
vt 0.0267 0.0147 0.0000
vt 0.9184 0.0147 0.0000
vt 0.9184 0.1091 0.0000
vt 0.7506 0.1436 0.0000
vt 0.0237 0.1504 0.0000
vt 0.0221 0.1069 0.0000
vt 0.1194 0.1069 0.0000
vt 0.7541 0.1069 0.0000
vt 0.9859 0.2607 0.0000
vt 0.0106 0.2607 0.0000
vt 0.0118 0.0945 0.0000
vt 0.9870 0.0945 0.0000
vt 0.9796 0.1515 0.0000
vt 0.2617 0.1487 0.0000
vt 0.2617 0.0947 0.0000
vt 0.8885 0.0947 0.0000
vt 0.9846 0.0947 0.0000
vt 0.9887 0.2658 0.0000
vt 0.0134 0.2658 0.0000
vt 0.0134 0.1078 0.0000
vt 0.9887 0.1078 0.0000
vt 0.0134 0.2504 0.0000
vt 0.0134 0.1048 0.0000
vt 0.9887 0.1048 0.0000
vt 0.9887 0.2504 0.0000
vt 0.0107 0.0188 0.0000
vt 0.9859 0.0188 0.0000
vt 0.8891 0.0393 0.0000
vt 0.9867 0.0304 0.0000
vt 0.9831 0.2758 0.0000
vt 0.0079 0.2758 0.0000
vt 0.0079 0.1137 0.0000
vt 0.9831 0.1137 0.0000
vt 0.0164 0.0280 0.0000
vt 0.1153 0.0496 0.0000
# 40 texture coords

g Box13
usemtl 03___Default
s 2
f 1/1/1 2/2/1 3/3/1 4/4/1 
s 4
f 5/5/2 6/6/2 7/7/2 8/8/2 
s 8
f 1/9/3 4/10/4 9/11/5 6/12/6 5/13/6 
s 16
f 4/14/7 3/15/7 10/16/7 9/17/7 
s 32
f 3/18/8 2/19/9 8/20/10 7/21/11 10/22/12 
s 64
f 2/23/13 1/24/13 5/25/13 8/26/13 
s 4
f 11/27/14 12/28/14 13/29/14 14/30/14 
s off
f 9/17/15 10/16/15 13/31/15 12/32/15 
f 10/22/16 7/21/16 14/33/16 13/34/16 
f 7/35/17 6/36/17 11/37/17 14/38/17 
f 6/12/6 9/11/6 12/39/6 11/40/6 
# 11 polygons

