# 3ds Max Wavefront OBJ Exporter v0.97b - (c)2007 guruware
# File Created: 08.09.2019 17:22:34

mtllib whiteBoard.mtl

#
# object Box002
#

v  -349.8138 137.7259 -146.7870
v  -349.8138 -7.6359 -146.7870
v  -349.8139 -7.6359 593.2130
v  -349.8139 137.7259 593.2130
v  -346.3112 -7.6359 593.2130
v  -346.3111 -7.6359 -146.7870
v  -346.3111 137.7259 -146.7870
v  -346.3112 137.7259 593.2130
# 8 vertices

vn -1.0000 -0.0000 -0.0000
vn 1.0000 0.0000 0.0000
vn 0.0000 -1.0000 0.0000
vn -0.0000 0.0000 1.0000
vn -0.0000 1.0000 -0.0000
vn 0.0000 0.0000 -1.0000
# 6 vertex normals

vt 0.0000 1.0000 0.0000
vt 0.0000 0.0000 0.0000
vt 1.0000 0.0000 0.0000
vt 1.0000 1.0000 0.0000
# 4 texture coords

g Box002
usemtl 20___Default
s 2
f 1/1/1 2/2/1 3/3/1 4/4/1 
s 4
f 5/2/2 6/3/2 7/4/2 8/1/2 
s 8
f 3/3/3 2/2/3 6/1/3 5/4/3 
s 16
f 4/3/4 3/2/4 5/1/4 8/4/4 
s 32
f 1/3/5 4/2/5 8/1/5 7/4/5 
s 64
f 2/3/6 1/2/6 7/1/6 6/4/6 
# 6 polygons

