# 3ds Max Wavefront OBJ Exporter v0.97b - (c)2007 guruware
# File Created: 09.09.2019 16:45:33

mtllib windowCenter.mtl

#
# object centerWindow
#

v  346.7500 34.5139 -135.0000
v  346.7500 34.5139 135.0000
v  346.7500 154.5139 135.0000
v  346.7500 154.5139 -135.0000
# 4 vertices

vn -1.0000 0.0000 -0.0000
# 1 vertex normals

vt 0.0000 0.0000 0.0000
vt 1.0000 0.0000 0.0000
vt 1.0000 1.0000 0.0000
vt 0.0000 1.0000 0.0000
# 4 texture coords

g centerWindow
usemtl 14___Default
s 64
f 1/1/1 2/2/1 3/3/1 4/4/1 
# 1 polygons

