# 3ds Max Wavefront OBJ Exporter v0.97b - (c)2007 guruware
# File Created: 09.09.2019 16:47:12

mtllib windowRight.mtl

#
# object rightWindow
#

v  346.7500 34.5139 280.0000
v  346.7500 34.5139 550.0001
v  346.7500 154.5139 550.0001
v  346.7500 154.5139 280.0000
v  347.2500 34.5139 550.0001
v  347.2500 34.5139 280.0000
v  347.2500 154.5139 280.0000
v  347.2500 154.5139 550.0001
# 8 vertices

vn -1.0000 0.0000 -0.0000
vn 1.0000 0.0000 -0.0000
# 2 vertex normals

vt 0.0000 0.0000 0.0000
vt 1.0000 0.0000 0.0000
vt 1.0000 1.0000 0.0000
vt 0.0000 1.0000 0.0000
# 4 texture coords

g rightWindow
usemtl 14___Default
s 64
f 1/1/1 2/2/1 3/3/1 4/4/1 
s 16
f 5/1/2 6/2/2 7/3/2 8/4/2 
# 2 polygons

